<?xml version="1.0" ?><svg viewBox="0 0 64 64" xmlns="http://www.w3.org/2000/svg"><path d="M38.848 55c-13.29 0-30.506-.133-31.322-.188C1.722 54.438.72 51.157.634 49.234l-.037-.79c-1.45-29.963.113-32.66.78-33.81.98-1.69 1.06-1.828 28.82-1.828h5.32c1.718 0 4.338 0 6.275-.012-.173-1.954.04-3.442 1.623-4.12C44.62 8.153 50.7 8 51.315 8c1.464 0 4.51 0 4.51 2.748.003.162.042.63.1 1.225 5.427.414 6.543 3.44 6.77 4.797.562 3.38 1.58 29.78 1.236 32.1-.392 2.655-1.426 5.202-6.29 5.858-.5.067-2.025.272-18.792.272z" fill="#FFF"/><path d="M31.042 22.422c-8.475.365-17.188-.524-19.228.958-2.825 2.052-1.55 14.957-1.367 17.92.182 2.965 3.007 3.33 5.65 3.33s31.712.41 34.765.046 3.053-1.596 3.326-4.195.09-13.816-2.005-16.87-12.667-1.553-21.14-1.188zm20.64 19.836c-1.185.82-36.77.958-38.045-.182-1.276-1.14-1.14-15.322-.32-16.918.49-.95 35.54-1.687 37.18-.365 1.64 1.323 2.37 16.645 1.185 17.465zm-40.187-23.21c-.32-.32-3.878-.328-4.42.137-.32.274-.41 4.423-.228 4.97s1.367.502 1.55.09-.365-3.373.136-3.83c.5-.455 2.552-.136 3.007-.136.456 0 .274-.913-.045-1.232zm48.753-1.87c-.547-3.283-6.56-2.736-6.56-2.736s-.343-3.078-.343-3.694c0-.616-8.475 0-8.953.205-.478.205.205 3.967.205 4.24s-40.54-.24-41.075.685c-1.982 3.42-.547 30.233-.41 33.243.137 3.01 3.554 3.147 4.58 3.216 1.024.068 46.063.41 49.617-.068 3.553-.48 3.895-1.915 4.168-3.762.273-1.847-.684-28.045-1.23-31.328zm-13.76-4.97c.5-.228 4.555-.456 4.738-.137.182.32.41 2.144.182 2.372-.228.228-4.01.958-4.83.365-.152-.11-.592-2.37-.09-2.6zm12.757 34.154s-2.233-2.918-2.597-3.055c-.364-.137-.775.912-.592 1.094.182.183 3.098 3.056 3.098 3.42s-.09 2.053-.32 2.053c-.227 0-3.325-3.83-3.553-3.922-.227-.09-.91.32-.728.594.182.274 3.007 3.42 2.78 3.42-.23 0-1.778 0-1.96-.09-.182-.092-2.187-3.01-2.46-3.01-.273 0-.82.045-.775.273.046.228 1.914 2.69 1.777 2.736-.137.046-2.096.046-2.096.046l-1.868-1.916s-.866.182-.866.456 1.14 1.505.866 1.55c-.273.046-37.908.456-40.414.32-2.506-.138-3.918-.548-4.1-2.007-.183-1.46-.64-28.09-.138-30.393.242-1.112 19.342-.48 28.84-.547 9.5-.068 20.687-.524 22.054-.48 1.367.047 2.187.73 2.187 1.095s.045 1.915.045 1.915-2.187-2.006-2.46-1.915c-.273.09-.866.684-.364.912.502.228 2.87 2.462 2.917 2.873.046.41.273 2.873.137 2.782-.137-.09-2.46-2.37-2.597-2.326-.137.045-.592.637-.228.91.363.275 3.143 2.69 3.143 2.965s.09 2.873-.046 2.782c-.137-.09-2.278-2.645-2.688-2.69-.41-.046-.73.775-.365 1.05.364.273 2.78 2.69 2.87 2.917.09.228.046 2.462.046 2.462l-2.46-2.234s-.272 1.186-.045 1.322c.228.137 2.506 2.508 2.506 2.508l.047 3.055s-2.187-2.234-2.324-2.143c-.137.09-.41.82-.182 1.14.23.32 2.735 2.736 2.78 3.01.046.274 0 2.736 0 2.736l-2.37-2.462s-.455.912-.272 1.23c.182.32 2.825 2.783 2.825 3.102s-.048 2.462-.048 2.462zM20.183 28.577c-.068.24-.17 3.694-.103 3.796.068.103 1.162.445 1.333.24.17-.206.205-3.9 0-4.14-.205-.238-1.164-.13-1.23.104zm2.682 6.224c-.205.24-.17 3.934 0 4.14.17.204 1.264-.138 1.333-.24.068-.103-.034-3.557-.103-3.796-.067-.233-1.025-.342-1.23-.103zm5.715 4.695c-.24-.068-3.69-.17-3.793-.103-.103.068-.444 1.163-.24 1.334.206.17 3.897.205 4.136 0 .238-.205.13-1.165-.103-1.23zm-.272-5.114c.103-.067.444-1.162.24-1.333s-3.897-.205-4.136 0c-.24.205-.13 1.165.103 1.23.24.07 3.69.172 3.793.104zm-4.1-6.43c.238.07 3.69.172 3.792.104.103-.068.444-1.163.24-1.334-.206-.17-3.897-.205-4.136 0-.24.205-.13 1.165.103 1.23zm4.38.627c-.067.24-.17 3.694-.102 3.796.068.103 1.162.445 1.333.24.17-.206.204-3.9 0-4.14-.206-.238-1.164-.13-1.23.104zm15.986-.626c.24.07 3.69.172 3.793.104.103-.068.444-1.163.24-1.334-.206-.17-3.897-.205-4.136 0-.238.205-.13 1.165.104 1.23zm-24.39 6.954c-.07.24-.172 3.694-.104 3.796.068.103 1.162.445 1.333.24.17-.206.205-3.9 0-4.14-.205-.238-1.164-.13-1.23.104zm15.983-6.953c.24.07 3.69.172 3.793.104.103-.068.444-1.163.24-1.334-.206-.17-3.897-.205-4.136 0-.238.205-.13 1.165.103 1.23zm12.79.627c-.07.24-.172 3.694-.104 3.796.068.103 1.162.445 1.333.24.17-.206.205-3.9 0-4.14-.205-.238-1.164-.13-1.23.104zm-8.407 0c-.068.24-.17 3.694-.103 3.796.068.103 1.162.445 1.333.24.17-.206.205-3.9 0-4.14s-1.164-.13-1.23.104zm2.68 6.224c-.204.24-.17 3.934 0 4.14.172.204 1.265-.138 1.334-.24.068-.103-.034-3.557-.103-3.796-.065-.233-1.024-.342-1.23-.103zm0-6.326c-.204.24-.17 3.933 0 4.138.172.205 1.265-.137 1.334-.24.068-.102-.034-3.556-.103-3.795-.065-.233-1.024-.342-1.23-.103zm5.726 6.43c-.068.24-.17 3.694-.103 3.796.068.103 1.162.445 1.333.24.17-.206.205-3.9 0-4.14-.205-.238-1.164-.13-1.23.104zm-.01 4.59c-.24-.067-3.69-.17-3.793-.102-.103.068-.444 1.163-.24 1.334.206.17 3.897.205 4.136 0 .238-.205.13-1.165-.104-1.23zm-14.12-4.693c-.206.24-.172 3.934 0 4.14.17.204 1.263-.138 1.332-.24.068-.103-.034-3.557-.103-3.796-.066-.233-1.025-.342-1.23-.103zm-3.66 1.29c-.41.41-.512 1.677.343 2.087.853.41 2.39-.137 2.015-1.368-.376-1.232-1.768-1.31-2.358-.72zm0-5.608c-.41.41-.512 1.676.343 2.086s2.39-.137 2.015-1.368c-.376-1.23-1.768-1.308-2.358-.718zm3.66-2.008c-.206.24-.172 3.933 0 4.138.17.205 1.263-.137 1.332-.24.068-.102-.034-3.556-.103-3.795-.066-.233-1.025-.342-1.23-.103zm5.714 11.02c-.24-.067-3.69-.17-3.793-.102-.103.068-.444 1.163-.24 1.334.206.17 3.897.205 4.136 0 .24-.205.13-1.165-.103-1.23zm.01-4.59c-.068.24-.17 3.694-.103 3.796.068.103 1.162.445 1.333.24.17-.206.205-3.9 0-4.14s-1.164-.13-1.23.104z"/></svg>